<svg xmlns="http://www.w3.org/2000/svg" width="33" height="34" viewBox="0 0 33 34" fill="none">
  <ellipse cx="16.6768" cy="17.0752" rx="16.1616" ry="16.2299" fill="#3A3E50"/>
  <path d="M9.60605 16.4252C9.24706 16.4252 8.95605 16.7162 8.95605 17.0752C8.95605 17.4342 9.24706 17.7252 9.60605 17.7252V16.4252ZM24.5101 17.5348C24.764 17.281 24.764 16.8694 24.5101 16.6156L20.3735 12.479C20.1197 12.2252 19.7081 12.2252 19.4543 12.479C19.2005 12.7329 19.2005 13.1444 19.4543 13.3983L23.1313 17.0752L19.4543 20.7522C19.2005 21.006 19.2005 21.4176 19.4543 21.6714C19.7081 21.9253 20.1197 21.9253 20.3735 21.6714L24.5101 17.5348ZM9.60605 17.7252L24.0505 17.7252V16.4252L9.60605 16.4252V17.7252Z" fill="white"/>
</svg>